<svg xmlns="http://www.w3.org/2000/svg" width="47.863" height="47.863" viewBox="0 0 47.863 47.863"><defs><style>.a{fill:#fe5d00;}</style></defs><path class="a" d="M7.011,47.863H22.623V30.849H17.014V25.24h5.609V18.229a7.019,7.019,0,0,1,7.011-7.011h7.011v5.609H31.036a2.808,2.808,0,0,0-2.8,2.8V25.24h8.16l-.935,5.609H28.232V47.863h12.62a7.019,7.019,0,0,0,7.011-7.011V7.011A7.019,7.019,0,0,0,40.852,0H7.011A7.019,7.019,0,0,0,0,7.011v33.84A7.019,7.019,0,0,0,7.011,47.863ZM2.8,7.011A4.212,4.212,0,0,1,7.011,2.8h33.84a4.212,4.212,0,0,1,4.207,4.207v33.84a4.212,4.212,0,0,1-4.207,4.207H31.036v-11.4h6.8L39.7,22.436H31.036v-2.8h8.413V8.413H29.634a9.827,9.827,0,0,0-9.816,9.816v4.207H14.209V33.654h5.609v11.4H7.011A4.212,4.212,0,0,1,2.8,40.852Zm0,0"/></svg>