<svg xmlns="http://www.w3.org/2000/svg" width="47.863" height="47.863" viewBox="0 0 47.863 47.863"><defs><style>.a{fill:#fe5d00;}</style></defs><path class="a" d="M7.011,47.863h33.84a7.019,7.019,0,0,0,7.011-7.011V7.011A7.019,7.019,0,0,0,40.852,0H7.011A7.019,7.019,0,0,0,0,7.011v33.84A7.019,7.019,0,0,0,7.011,47.863ZM2.8,7.011A4.212,4.212,0,0,1,7.011,2.8h33.84a4.212,4.212,0,0,1,4.207,4.207v33.84a4.212,4.212,0,0,1-4.207,4.207H7.011A4.212,4.212,0,0,1,2.8,40.852Zm0,0"/><path class="a" d="M133.62,146.24A12.62,12.62,0,1,0,121,133.62,12.635,12.635,0,0,0,133.62,146.24Zm0-22.436a9.816,9.816,0,1,1-9.816,9.816A9.827,9.827,0,0,1,133.62,123.8Zm0,0" transform="translate(-109.689 -109.689)"/><path class="a" d="M365.207,69.413A4.207,4.207,0,1,0,361,65.207,4.212,4.212,0,0,0,365.207,69.413Zm0-5.609a1.4,1.4,0,1,1-1.4,1.4A1.4,1.4,0,0,1,365.207,63.8Zm0,0" transform="translate(-327.253 -55.298)"/></svg>