<svg xmlns="http://www.w3.org/2000/svg" width="38.885" height="47.861" viewBox="0 0 38.885 47.861"><defs><style>.a{fill:#fe5d00;}</style></defs><path class="a" d="M68.1,0C54.98,0,48,8.406,48,17.572c0,4.251,2.375,9.552,6.177,11.233.577.26.891.15,1.02-.386.114-.407.613-2.366.856-3.291a.846.846,0,0,0-.2-.832,10.9,10.9,0,0,1-2.265-6.614c0-6.393,5.082-12.6,13.731-12.6C74.8,5.082,80.03,9.941,80.03,16.89c0,7.852-4.155,13.285-9.555,13.285-2.988,0-5.214-2.345-4.508-5.247.853-3.455,2.525-7.17,2.525-9.662,0-2.235-1.262-4.083-3.841-4.083-3.042,0-5.51,3.012-5.51,7.057a10.061,10.061,0,0,0,.909,4.3S57.041,34.7,56.482,36.971c-.945,3.844.129,10.069.221,10.6a.315.315,0,0,0,.574.147c.3-.389,3.934-5.579,4.954-9.33.371-1.367,1.894-6.91,1.894-6.91,1,1.81,3.895,3.326,6.976,3.326,9.166,0,15.789-8.056,15.789-18.053C86.857,7.17,78.654,0,68.1,0Z" transform="translate(-48.004)"/></svg>