<svg xmlns="http://www.w3.org/2000/svg" width="58.477" height="47.861" viewBox="0 0 58.477 47.861"><defs><style>.a{fill:#fe5d00;}</style></defs><path class="a" d="M58.477,6.392c-3.678.17-3.6.156-4.014.191L56.641.361s-6.8,2.5-8.524,2.949A13.644,13.644,0,0,0,32.049,2.018,11.129,11.129,0,0,0,26.7,13.461,29.682,29.682,0,0,1,7.47,2.635L5.857.7,4.652,2.911a13.378,13.378,0,0,0-1.425,9.006A12.939,12.939,0,0,0,4.48,15.433L3.1,14.9l-.164,2.312a12.338,12.338,0,0,0,2.092,7.334,13.042,13.042,0,0,0,1.63,2.01l-.715-.11.873,2.65a12.881,12.881,0,0,0,6.621,7.672c-3.088,1.31-5.582,2.146-9.682,3.5L0,41.493l3.465,1.894a36.367,36.367,0,0,0,10.6,3.858c10.252,1.608,21.8.3,29.566-6.7,6.545-5.895,8.693-14.28,8.247-23.006a5.452,5.452,0,0,1,1.019-3.55c1.451-1.938,5.57-7.584,5.579-7.6Zm-8.318,5.545a8.879,8.879,0,0,0-1.7,5.777c.45,8.8-1.945,15.628-7.119,20.288C35.3,43.445,25.549,45.582,14.6,43.863a26.523,26.523,0,0,1-5.73-1.7,90.863,90.863,0,0,0,10.379-4.266l5.985-2.833-6.607-.423a9.344,9.344,0,0,1-7.42-4.227,11.851,11.851,0,0,0,2.515-.419l6.3-1.755-6.354-1.556a9.464,9.464,0,0,1-5.781-4.021A9.693,9.693,0,0,1,6.631,19.9a15.862,15.862,0,0,0,2.578.411l5.882.582-4.66-3.635A9.809,9.809,0,0,1,6.714,6.919C17.193,17.788,29.5,16.971,30.735,17.258a20.286,20.286,0,0,0-.351-2.906C28.8,8.745,32.274,5.9,33.842,4.935a10.233,10.233,0,0,1,12.073,1,3.066,3.066,0,0,0,2.813.753,23.68,23.68,0,0,0,2.318-.7L49.569,10.2h1.886c-.356.477-.783,1.049-1.3,1.734Zm0,0" transform="translate(0 0)"/></svg>