<svg xmlns="http://www.w3.org/2000/svg" width="22.812" height="20.911" viewBox="0 0 22.812 20.911"><defs><style>.a{fill:#ff5e00;}</style></defs><path class="a" d="M21.108,19.248l-3.716-1.609a.753.753,0,0,1-.268-.293l2.481,0a4.4,4.4,0,0,0,1.886-.255,1.129,1.129,0,0,0,.473-1.684,12.592,12.592,0,0,1-2.416-6.32c0-.046-.151-4.594-4.642-4.631a5.342,5.342,0,0,0-1.829.324,3.162,3.162,0,0,0-.566-.935A4.783,4.783,0,0,0,8.745,2.5,4.787,4.787,0,0,0,4.978,3.842a3.409,3.409,0,0,0-.8,2.481V8.345a1.516,1.516,0,0,0-.38,1v1.521a1.512,1.512,0,0,0,.569,1.182A7.979,7.979,0,0,0,5.7,14.8v1.258a1,1,0,0,1-.524.882l-3.392,1.85A3.43,3.43,0,0,0,0,21.8v1.611H22.812V22.005A3.066,3.066,0,0,0,21.108,19.248Zm-4.379,3.4H.76V21.8a2.668,2.668,0,0,1,1.391-2.344l3.392-1.85a1.766,1.766,0,0,0,.92-1.55V14.528l-.089-.106a7.178,7.178,0,0,1-1.3-2.686l-.035-.151-.13-.084a.759.759,0,0,1-.352-.638V9.344a.75.75,0,0,1,.255-.561l.125-.113V6.3l0-.05a2.64,2.64,0,0,1,.61-1.909,4.085,4.085,0,0,1,3.2-1.083,4.093,4.093,0,0,1,3.188,1.075,2.47,2.47,0,0,1,.55,1.09c.006.027.012.053.017.079s.011.054.015.08.009.058.013.086.006.041.008.06c.006.047.01.093.013.135a.086.086,0,0,1,0,.01c0,.041,0,.08.006.115,0,.007,0,.013,0,.019,0,.032,0,.062,0,.088v.011c0,.089-.008.143-.008.144l0,2.417.125.113a.749.749,0,0,1,.255.56v1.521a.756.756,0,0,1-.541.722l-.189.058-.061.188A7.959,7.959,0,0,1,11.059,14a5,5,0,0,1-.318.41l-.095.108v1.568a1.791,1.791,0,0,0,.024.283c0,.02.008.039.012.059a1.784,1.784,0,0,0,.059.224c.006.017.012.033.018.051a1.768,1.768,0,0,0,.1.23l.013.025a1.735,1.735,0,0,0,.192.275l.087.107h.015a1.771,1.771,0,0,0,.451.325l3.632,1.816a2.653,2.653,0,0,1,1.476,2.387Zm5.323,0H17.489v-.777a3.411,3.411,0,0,0-1.9-3.067l-2.607-1.3a.658.658,0,0,0-.6-.918H11.54a.969.969,0,0,1-.043-.1.83.83,0,0,1-.091-.4V14.806c.087-.106.179-.228.273-.362a8.7,8.7,0,0,0,1.123-2.2,1.509,1.509,0,0,0,.885-1.375V9.344a1.516,1.516,0,0,0-.38-1V6.323a3.345,3.345,0,0,0-.032-.813,4.55,4.55,0,0,1,1.631-.3c3.742.031,3.878,3.73,3.882,3.886a13.355,13.355,0,0,0,2.554,6.742.369.369,0,0,1,.053.314.355.355,0,0,1-.2.234,3.738,3.738,0,0,1-1.55.2H17.025a.7.7,0,0,0-.629,1.01,1.587,1.587,0,0,0,.675.733l3.706,1.605a2.309,2.309,0,0,1,1.275,2.073Z" transform="translate(0 -2.5)"/></svg>