<svg xmlns="http://www.w3.org/2000/svg" width="14.765" height="13.535" viewBox="0 0 14.765 13.535"><defs><style>.a{fill:#ff5e00;}</style></defs><path class="a" d="M13.662,13.34l-2.4-1.042a.488.488,0,0,1-.173-.19h1.606a2.845,2.845,0,0,0,1.221-.165.731.731,0,0,0,.306-1.09,8.15,8.15,0,0,1-1.564-4.091,3.02,3.02,0,0,0-3-3,3.458,3.458,0,0,0-1.184.21A2.046,2.046,0,0,0,8.1,3.369,3.1,3.1,0,0,0,5.66,2.5a3.1,3.1,0,0,0-2.438.869,2.206,2.206,0,0,0-.515,1.606V6.283a.981.981,0,0,0-.246.646v.984a.979.979,0,0,0,.368.765,5.165,5.165,0,0,0,.862,1.781v.814a.65.65,0,0,1-.339.571l-2.2,1.2A2.22,2.22,0,0,0,0,14.992v1.043H14.765v-.91A1.985,1.985,0,0,0,13.662,13.34Zm-2.834,2.2H.492v-.551a1.727,1.727,0,0,1,.9-1.517l2.2-1.2a1.143,1.143,0,0,0,.6-1v-.989l-.057-.068a4.646,4.646,0,0,1-.839-1.739l-.022-.1-.084-.054a.491.491,0,0,1-.228-.413V6.93a.486.486,0,0,1,.165-.363L3.2,6.493V4.961l0-.032a1.709,1.709,0,0,1,.395-1.236,2.644,2.644,0,0,1,2.068-.7,2.649,2.649,0,0,1,2.064.7,1.6,1.6,0,0,1,.356.706c0,.017.008.034.011.051s.007.035.01.052.006.037.009.056,0,.026.005.039c0,.031.007.06.009.087a.056.056,0,0,1,0,.006c0,.027,0,.052,0,.075,0,0,0,.008,0,.013,0,.02,0,.04,0,.057v.007c0,.058,0,.092,0,.093l0,1.564.081.073a.485.485,0,0,1,.165.363v.984a.489.489,0,0,1-.35.467l-.123.038-.039.122a5.152,5.152,0,0,1-.7,1.406,3.238,3.238,0,0,1-.206.266l-.061.07V11.3a1.159,1.159,0,0,0,.016.183c0,.013.005.025.008.038a1.155,1.155,0,0,0,.038.145l.012.033a1.144,1.144,0,0,0,.068.149l.009.016a1.123,1.123,0,0,0,.124.178l.056.069h.01a1.146,1.146,0,0,0,.292.211l2.351,1.175a1.717,1.717,0,0,1,.955,1.545Zm3.445,0H11.32v-.5a2.208,2.208,0,0,0-1.227-1.985L8.405,12.21a.426.426,0,0,0-.391-.594H7.469a.627.627,0,0,1-.028-.063.537.537,0,0,1-.059-.256v-.832c.056-.069.116-.147.177-.234A5.632,5.632,0,0,0,8.286,8.8a.976.976,0,0,0,.573-.89V6.93a.981.981,0,0,0-.246-.646V4.975a2.165,2.165,0,0,0-.021-.526,2.945,2.945,0,0,1,1.056-.192A2.5,2.5,0,0,1,12.16,6.772a8.644,8.644,0,0,0,1.653,4.364.239.239,0,0,1,.034.2.23.23,0,0,1-.132.151,2.419,2.419,0,0,1-1,.126H11.019a.454.454,0,0,0-.407.654,1.027,1.027,0,0,0,.437.474l2.4,1.039a1.5,1.5,0,0,1,.825,1.342Z" transform="translate(0 -2.5)"/></svg>